# xmcd
#
# Track frame offsets: 
#        150
#        21417
#        41670
#        56152
#        71982
#        91512
#        109610
#        130597
#        150370
#        166795
#
# Disc length: 2546 seconds
#
# Revision: 2
# Processed by: cddbd v1.5.2PL0 Copyright (c) Steve Scherf et al.
# Submitted via: ExactAudioCopyFreeDBPlugin 1.0
#
DISCID=7709f00a
DTITLE=The Kinsey Report - Powerhouse
DYEAR=1990
DGENRE=
TTITLE0=Image Maker
TTITLE1=Hit The Spot
TTITLE2=I'll Be Singing The Blues
TTITLE3=Bad Talking
TTITLE4=Keep On Moving
TTITLE5=Teenage Rage
TTITLE6=Heart's On Fire
TTITLE7=Jammin' Out Tonight
TTITLE8=Walk With Balance
TTITLE9=Good Mornin' Mississippi
EXTD=
EXTT0=
EXTT1=
EXTT2=
EXTT3=
EXTT4=
EXTT5=
EXTT6=
EXTT7=
EXTT8=
EXTT9=
PLAYORDER=
